<?xml version="1.0" encoding="UTF-8"?>
<!DOCTYPE svg PUBLIC "-//W3C//DTD SVG 1.1//EN" "http://www.w3.org/Graphics/SVG/1.1/DTD/svg11.dtd">
<svg xmlns="http://www.w3.org/2000/svg" version="1.1" width="1040px" height="693px" style="shape-rendering:geometricPrecision; text-rendering:geometricPrecision; image-rendering:optimizeQuality; fill-rule:evenodd; clip-rule:evenodd" xmlns:xlink="http://www.w3.org/1999/xlink">
<g><path style="opacity:0.949" fill="#9e1812" d="M 1021.5,180.5 C 687.5,180.5 353.5,180.5 19.5,180.5C 19.5,291.5 19.5,402.5 19.5,513.5C 18.5005,402.335 18.1672,291.001 18.5,179.5C 353,179.167 687.334,179.5 1021.5,180.5 Z"/></g>
<g><path style="opacity:1" fill="#e2231a" d="M 1021.5,180.5 C 1021.5,291.5 1021.5,402.5 1021.5,513.5C 687.5,513.5 353.5,513.5 19.5,513.5C 19.5,402.5 19.5,291.5 19.5,180.5C 353.5,180.5 687.5,180.5 1021.5,180.5 Z"/></g>
<g><path style="opacity:1" fill="#fefdfd" d="M 147.5,256.5 C 147.5,301.5 147.5,346.5 147.5,391.5C 174.167,391.5 200.833,391.5 227.5,391.5C 227.5,402.167 227.5,412.833 227.5,423.5C 188.833,423.5 150.167,423.5 111.5,423.5C 111.5,367.833 111.5,312.167 111.5,256.5C 123.5,256.5 135.5,256.5 147.5,256.5 Z"/></g>
<g><path style="opacity:1" fill="#fefcfc" d="M 288.5,292.5 C 307.581,290.899 325.247,295.066 341.5,305C 355.963,316.759 363.963,331.926 365.5,350.5C 335.491,362.004 305.825,374.337 276.5,387.5C 283.799,394.658 292.632,397.992 303,397.5C 316.646,397.507 328.813,393.341 339.5,385C 340.5,384.333 341.5,384.333 342.5,385C 349.391,390.272 356.057,395.772 362.5,401.5C 357.601,406.952 351.934,411.452 345.5,415C 321.482,426.948 296.815,428.615 271.5,420C 237.669,402.901 225.169,375.734 234,338.5C 243.673,312.938 261.84,297.604 288.5,292.5 Z"/></g>
<g><path style="opacity:1" fill="#fefdfc" d="M 446.5,292.5 C 466.314,290.491 483.147,296.491 497,310.5C 502.857,318.217 506.524,326.884 508,336.5C 508.5,365.498 508.667,394.498 508.5,423.5C 496.5,423.5 484.5,423.5 472.5,423.5C 472.667,396.831 472.5,370.165 472,343.5C 464.698,327.377 452.198,320.877 434.5,324C 423.904,327.596 417.071,334.762 414,345.5C 413.5,371.498 413.333,397.498 413.5,423.5C 401.833,423.5 390.167,423.5 378.5,423.5C 378.5,380.5 378.5,337.5 378.5,294.5C 390.167,294.5 401.833,294.5 413.5,294.5C 413.334,300.509 413.501,306.509 414,312.5C 422.783,302.365 433.616,295.699 446.5,292.5 Z"/></g>
<g><path style="opacity:1" fill="#fefcfc" d="M 580.5,292.5 C 610.235,289.79 633.735,300.456 651,324.5C 664.841,350.867 663.175,376.2 646,400.5C 626.525,421.325 602.691,429.158 574.5,424C 538.016,413.167 520.516,388.667 522,350.5C 528.786,318.214 548.286,298.88 580.5,292.5 Z"/></g>
<g><path style="opacity:1" fill="#fefcfc" d="M 852.5,292.5 C 882.235,289.79 905.735,300.456 923,324.5C 936.561,350.299 935.227,375.299 919,399.5C 896.844,423.404 870.011,430.904 838.5,422C 803.136,406.442 788.969,379.608 796,341.5C 805.722,314.608 824.556,298.275 852.5,292.5 Z"/></g>
<g><path style="opacity:1" fill="#f5bab6" d="M 695.5,295.5 C 681.99,295.171 668.656,295.504 655.5,296.5C 654.957,296.44 654.624,296.107 654.5,295.5C 668.328,294.174 681.994,294.174 695.5,295.5 Z"/></g>
<g><path style="opacity:1" fill="#f5bcb8" d="M 758.5,295.5 C 772.006,294.174 785.672,294.174 799.5,295.5C 799.376,296.107 799.043,296.44 798.5,296.5C 785.344,295.504 772.01,295.171 758.5,295.5 Z"/></g>
<g><path style="opacity:1" fill="#fefdfd" d="M 695.5,295.5 C 706.09,324.1 716.59,352.766 727,381.5C 737.792,352.921 748.292,324.254 758.5,295.5C 772.01,295.171 785.344,295.504 798.5,296.5C 781.833,337.5 765.167,378.5 748.5,419.5C 747.751,420.531 747.085,421.698 746.5,423C 733.504,423.5 720.504,423.667 707.5,423.5C 690.44,381.048 673.107,338.715 655.5,296.5C 668.656,295.504 681.99,295.171 695.5,295.5 Z"/></g>
<g><path style="opacity:1" fill="#e2251b" d="M 290.5,321.5 C 303.217,319.13 314.05,322.464 323,331.5C 324.993,333.818 326.159,336.484 326.5,339.5C 306.279,347.777 285.945,355.777 265.5,363.5C 263.661,343.143 271.995,329.143 290.5,321.5 Z"/></g>
<g><path style="opacity:1" fill="#e2241b" d="M 581.5,323.5 C 604.198,321.053 618.698,330.719 625,352.5C 626.448,381.05 612.948,395.217 584.5,395C 562.644,387.139 553.811,371.639 558,348.5C 561.616,336.054 569.45,327.721 581.5,323.5 Z"/></g>
<g><path style="opacity:1" fill="#e2241b" d="M 853.5,323.5 C 874.382,320.683 888.548,329.016 896,348.5C 900.033,364.585 895.866,378.085 883.5,389C 863.834,400.445 847.334,396.945 834,378.5C 828.445,365.966 828.112,353.299 833,340.5C 838.029,332.581 844.863,326.914 853.5,323.5 Z"/></g>
<g><path style="opacity:1" fill="#ef837e" d="M 147.5,256.5 C 148.499,300.997 148.832,345.664 148.5,390.5C 175.167,390.5 201.833,390.5 228.5,390.5C 228.828,401.679 228.495,412.679 227.5,423.5C 227.5,412.833 227.5,402.167 227.5,391.5C 200.833,391.5 174.167,391.5 147.5,391.5C 147.5,346.5 147.5,301.5 147.5,256.5 Z"/></g>
<g><path style="opacity:1" fill="#fde0de" d="M 931.5,404.5 C 936.5,404.5 941.5,404.5 946.5,404.5C 946.5,405.833 946.5,407.167 946.5,408.5C 944.5,408.5 942.5,408.5 940.5,408.5C 940.5,413.5 940.5,418.5 940.5,423.5C 939.167,423.5 937.833,423.5 936.5,423.5C 936.5,418.5 936.5,413.5 936.5,408.5C 934.833,408.5 933.167,408.5 931.5,408.5C 931.5,407.167 931.5,405.833 931.5,404.5 Z"/></g>
<g><path style="opacity:1" fill="#fef2f1" d="M 965.5,405.5 C 966.5,405.5 967.5,405.5 968.5,405.5C 968.5,411.5 968.5,417.5 968.5,423.5C 967.5,423.5 966.5,423.5 965.5,423.5C 965.666,419.486 965.499,415.486 965,411.5C 963.638,414.236 961.804,416.569 959.5,418.5C 957.678,416.206 955.844,413.872 954,411.5C 953.501,415.486 953.334,419.486 953.5,423.5C 952.5,423.5 951.5,423.5 950.5,423.5C 950.5,417.167 950.5,410.833 950.5,404.5C 951.978,404.238 953.311,404.571 954.5,405.5C 955.921,408.009 957.588,410.343 959.5,412.5C 961.523,410.147 963.523,407.814 965.5,405.5 Z"/></g>
<g><path style="opacity:1" fill="#f4a9a6" d="M 965.5,405.5 C 966.568,404.566 967.901,404.232 969.5,404.5C 969.823,411.022 969.49,417.355 968.5,423.5C 968.5,417.5 968.5,411.5 968.5,405.5C 967.5,405.5 966.5,405.5 965.5,405.5 Z"/></g>
<g><path style="opacity:1" fill="#e6453d" d="M 748.5,419.5 C 748.414,420.496 748.748,421.329 749.5,422C 748.833,422.667 748.167,423.333 747.5,424C 733.994,424.827 720.66,424.66 707.5,423.5C 720.504,423.667 733.504,423.5 746.5,423C 747.085,421.698 747.751,420.531 748.5,419.5 Z"/></g>
</svg>
