<?xml version="1.0" encoding="UTF-8"?>
<!DOCTYPE svg PUBLIC "-//W3C//DTD SVG 1.1//EN" "http://www.w3.org/Graphics/SVG/1.1/DTD/svg11.dtd">
<svg xmlns="http://www.w3.org/2000/svg" version="1.1" width="5000px" height="3125px" style="shape-rendering:geometricPrecision; text-rendering:geometricPrecision; image-rendering:optimizeQuality; fill-rule:evenodd; clip-rule:evenodd" xmlns:xlink="http://www.w3.org/1999/xlink">
<g><path style="opacity:0.769" fill="#1e8f65" d="M 3822.5,967.5 C 4214.5,968.167 4606.5,968.833 4998.5,969.5C 4606.83,969.333 4215.17,969.5 3823.5,970C 3930.73,1077.4 4038.06,1184.56 4145.5,1291.5C 4144.83,1291.5 4144.5,1291.83 4144.5,1292.5C 4036.87,1185.37 3929.37,1078.03 3822,970.5C 3821.26,969.251 3821.43,968.251 3822.5,967.5 Z"/></g>
<g><path style="opacity:0.353" fill="#3eae85" d="M 3822.5,967.5 C 4214.83,967.5 4607.17,967.5 4999.5,967.5C 4999.5,1360.17 4999.5,1752.83 4999.5,2145.5C 4999.17,2145.5 4998.83,2145.5 4998.5,2145.5C 4998.5,1753.5 4998.5,1361.5 4998.5,969.5C 4606.5,968.833 4214.5,968.167 3822.5,967.5 Z"/></g>
<g><path style="opacity:1" fill="#009a66" d="M 4998.5,969.5 C 4998.5,1361.5 4998.5,1753.5 4998.5,2145.5C 4997.5,2144.83 4996.5,2144.17 4995.5,2143.5C 4890.38,2036.38 4784.38,1929.55 4677.5,1823C 4676.91,1822.54 4676.24,1822.37 4675.5,1822.5C 4675.5,1645.83 4675.5,1469.17 4675.5,1292.5C 4499,1291.5 4322.33,1291.17 4145.5,1291.5C 4038.06,1184.56 3930.73,1077.4 3823.5,970C 4215.17,969.5 4606.83,969.333 4998.5,969.5 Z"/></g>
<g><path style="opacity:0.995" fill="#000000" d="M 435.5,1047.5 C 535.07,1047.17 634.57,1047.5 734,1048.5C 885.667,1389.5 1037.33,1730.5 1189,2071.5C 1189.81,2073.44 1190.31,2075.44 1190.5,2077.5C 1098.16,2077.83 1005.83,2077.5 913.5,2076.5C 885.684,2009.48 857.684,1942.15 829.5,1874.5C 676.501,1873.33 523.501,1873.17 370.5,1874C 344.128,1941.57 318.462,2009.41 293.5,2077.5C 202.5,2077.5 111.5,2077.5 20.5,2077.5C 158.377,1734.25 296.71,1390.92 435.5,1047.5 Z M 587.5,1295.5 C 608.085,1342.72 628.751,1391.55 649.5,1442C 683.206,1524.19 717.54,1606.85 752.5,1690C 751.366,1691.02 751.699,1691.68 753.5,1692C 648.5,1692.67 543.5,1692.67 438.5,1692C 488.865,1560.07 538.532,1427.9 587.5,1295.5 Z"/></g>
<g><path style="opacity:0.995" fill="#000000" d="M 1903.5,1733.5 C 1896.7,1741.14 1890.03,1748.98 1883.5,1757C 1869.83,1757.67 1856.17,1757.67 1842.5,1757C 1750.25,1650.42 1658.41,1543.59 1567,1436.5C 1566.67,1649.83 1566.33,1863.17 1566,2076.5C 1480.24,2077.5 1394.4,2077.83 1308.5,2077.5C 1308.5,1734.17 1308.5,1390.83 1308.5,1047.5C 1383.5,1047.33 1458.5,1047.5 1533.5,1048C 1642.98,1175.11 1752.81,1301.95 1863,1428.5C 1972.46,1301.37 2082.29,1174.54 2192.5,1048C 2267.4,1047.17 2342.24,1047.34 2417,1048.5C 2417.26,1391.03 2417.26,1733.69 2417,2076.5C 2331.24,2077.5 2245.4,2077.83 2159.5,2077.5C 2159.67,1863.83 2159.5,1650.17 2159,1436.5C 2073.83,1535.53 1988.66,1634.53 1903.5,1733.5 Z"/></g>
<g><path style="opacity:0.995" fill="#000000" d="M 2611.5,1047.5 C 2776.21,1047.5 2940.71,1047.5 3105,1047.5C 3176.19,1050.68 3245.69,1064.18 3313.5,1088C 3421.79,1127.65 3505.96,1196.48 3566,1294.5C 3612.94,1378.25 3636.11,1468.25 3635.5,1564.5C 3636.54,1651.16 3618.37,1733.49 3581,1811.5C 3536.01,1897.49 3470.17,1962.33 3383.5,2006C 3311.93,2041.04 3235.76,2062.54 3155,2070.5C 3141.66,2072.11 3128.33,2073.77 3115,2075.5C 3106.38,2075.99 3097.88,2075.99 3089.5,2075.5C 3086.3,2076.13 3083.13,2076.79 3080,2077.5C 2924.07,2077.46 2767.91,2077.46 2611.5,2077.5C 2611.5,1734.17 2611.5,1390.83 2611.5,1047.5 Z M 3265.5,1308.5 C 3314.92,1350.86 3346.42,1404.2 3360,1468.5C 3372.57,1529.77 3372.57,1591.43 3360,1653.5C 3332.79,1770.71 3260.96,1844.54 3144.5,1875C 3111.34,1882.39 3077.84,1886.55 3044,1887.5C 2986.59,1887.47 2928.43,1887.47 2869.5,1887.5C 2869.5,1670.83 2869.5,1454.17 2869.5,1237.5C 2930.59,1237.54 2991.26,1237.54 3051.5,1237.5C 3103.2,1239.07 3153.2,1249.57 3201.5,1269C 3224.64,1279.49 3245.97,1292.65 3265.5,1308.5 Z"/></g>
<g><path style="opacity:0.353" fill="#298665" d="M 4144.5,1292.5 C 4144.5,1291.83 4144.83,1291.5 4145.5,1291.5C 4322.33,1291.17 4499,1291.5 4675.5,1292.5C 4498.5,1293.83 4321.5,1293.83 4144.5,1292.5 Z"/></g>
<g><path style="opacity:1" fill="#009965" d="M 4147.5,1821.5 C 4147.08,1822.22 4146.42,1822.72 4145.5,1823C 4300.24,1823.17 4454.9,1823.67 4609.5,1824.5C 4499.5,1935.17 4389.17,2045.5 4278.5,2155.5C 4123.33,2154.5 3968,2154.17 3812.5,2154.5C 3812.5,1999.5 3812.5,1844.5 3812.5,1689.5C 3923.5,1579.5 4033.5,1469.17 4142.5,1358.5C 4142.81,1357.52 4143.48,1356.86 4144.5,1356.5C 4144.83,1511.84 4145.83,1666.84 4147.5,1821.5 Z"/></g>
<g><path style="opacity:0.769" fill="#2aa375" d="M 4142.5,1358.5 C 4033.5,1469.17 3923.5,1579.5 3812.5,1689.5C 3811.83,1689.5 3811.5,1689.17 3811.5,1688.5C 3921.51,1578.83 4031.84,1468.83 4142.5,1358.5 Z"/></g>
<g><path style="opacity:0.769" fill="#117d56" d="M 3811.5,1688.5 C 3811.5,1689.17 3811.83,1689.5 3812.5,1689.5C 3812.5,1844.5 3812.5,1999.5 3812.5,2154.5C 3811.83,2154.5 3811.5,2154.83 3811.5,2155.5C 3810.17,1999.83 3810.17,1844.17 3811.5,1688.5 Z"/></g>
<g><path style="opacity:0.11" fill="#003d28" d="M 1903.5,1733.5 C 1904.83,1734.17 1904.83,1734.17 1903.5,1733.5 Z"/></g>
<g><path style="opacity:0.769" fill="#157b56" d="M 4147.5,1821.5 C 4301.83,1821.5 4456.17,1821.5 4610.5,1821.5C 4610.74,1822.79 4610.4,1823.79 4609.5,1824.5C 4454.9,1823.67 4300.24,1823.17 4145.5,1823C 4146.42,1822.72 4147.08,1822.22 4147.5,1821.5 Z"/></g>
<g><path style="opacity:0.769" fill="#208b63" d="M 4675.5,1822.5 C 4676.24,1822.37 4676.91,1822.54 4677.5,1823C 4784.38,1929.55 4890.38,2036.38 4995.5,2143.5C 4889.39,2037.22 4782.89,1930.89 4676,1824.5C 4675.54,1823.91 4675.37,1823.24 4675.5,1822.5 Z"/></g>
<g><path style="opacity:0.353" fill="#3faf85" d="M 3812.5,2154.5 C 3967.5,2155.17 4122.5,2155.83 4277.5,2156.5C 4122,2156.83 3966.67,2156.5 3811.5,2155.5C 3811.5,2154.83 3811.83,2154.5 3812.5,2154.5 Z"/></g>
<g><path style="opacity:0.769" fill="#1d9f6e" d="M 3812.5,2154.5 C 3968,2154.17 4123.33,2154.5 4278.5,2155.5C 4278.5,2156.17 4278.17,2156.5 4277.5,2156.5C 4122.5,2155.83 3967.5,2155.17 3812.5,2154.5 Z"/></g>
</svg>
